<svg width="26" height="26" viewBox="0 0 26 26" fill="none" xmlns="http://www.w3.org/2000/svg">
<mask id="mask0_286_2551" style="mask-type:luminance" maskUnits="userSpaceOnUse" x="0" y="0" width="26" height="26">
<path d="M13 24.6668C14.5324 24.6687 16.05 24.3678 17.4658 23.7814C18.8815 23.195 20.1674 22.3346 21.2495 21.2497C22.3345 20.1675 23.1948 18.8816 23.7813 17.4659C24.3677 16.0502 24.6686 14.5325 24.6667 13.0002C24.6686 11.4678 24.3677 9.95017 23.7813 8.53446C23.1948 7.11874 22.3345 5.83286 21.2495 4.75067C20.1674 3.66577 18.8815 2.80538 17.4658 2.21896C16.05 1.63253 14.5324 1.33162 13 1.3335C11.4677 1.33162 9.95005 1.63253 8.53434 2.21896C7.11862 2.80538 5.83273 3.66577 4.75055 4.75067C3.66564 5.83286 2.80526 7.11874 2.21883 8.53446C1.63241 9.95017 1.33149 11.4678 1.33338 13.0002C1.33149 14.5325 1.63241 16.0502 2.21883 17.4659C2.80526 18.8816 3.66564 20.1675 4.75055 21.2497C5.83273 22.3346 7.11862 23.195 8.53434 23.7814C9.95005 24.3678 11.4677 24.6687 13 24.6668Z" fill="white" stroke="white" stroke-width="2.66667" stroke-linejoin="round"/>
<path d="M8.33337 13L11.8334 16.5L18.8334 9.5" stroke="black" stroke-width="2.66667" stroke-linecap="round" stroke-linejoin="round"/>
</mask>
<g mask="url(#mask0_286_2551)">
<path d="M-1 -1H27V27H-1V-1Z" fill="black"/>
</g>
</svg>
