<svg width="29" height="29" viewBox="0 0 29 29" fill="none" xmlns="http://www.w3.org/2000/svg">
<path d="M14.6365 0.517578C6.89649 0.517578 0.63649 6.81758 0.63649 14.5976C0.63649 21.6176 5.75649 27.4576 12.4565 28.5176V18.6776H8.89649V14.5976H12.4565V11.4976C12.4565 7.95758 14.5565 6.01758 17.7365 6.01758C19.2765 6.01758 20.8765 6.29758 20.8765 6.29758V9.75758H19.1165C17.3765 9.75758 16.8365 10.8376 16.8365 11.9576V14.5976H20.7165L20.0965 18.6776H16.8365V28.5176C23.5365 27.4576 28.6565 21.6376 28.6565 14.5976C28.6565 6.81758 22.3965 0.517578 14.6565 0.517578H14.6365Z" fill="#F8EDD9"/>
</svg>
