<svg width="25" height="25" viewBox="0 0 25 25" fill="none" xmlns="http://www.w3.org/2000/svg">
<path d="M0 12.5C0 5.59625 5.59625 0 12.5 0C19.4038 0 25 5.59625 25 12.5C25 19.4038 19.4038 25 12.5 25C5.59625 25 0 19.4038 0 12.5ZM8.4375 11.25C8.8519 11.25 9.24933 11.0854 9.54236 10.7924C9.83538 10.4993 10 10.1019 10 9.6875C10 9.2731 9.83538 8.87567 9.54236 8.58265C9.24933 8.28962 8.8519 8.125 8.4375 8.125C8.0231 8.125 7.62567 8.28962 7.33265 8.58265C7.03962 8.87567 6.875 9.2731 6.875 9.6875C6.875 10.1019 7.03962 10.4993 7.33265 10.7924C7.62567 11.0854 8.0231 11.25 8.4375 11.25ZM18.125 9.6875C18.125 9.2731 17.9604 8.87567 17.6674 8.58265C17.3743 8.28962 16.9769 8.125 16.5625 8.125C16.1481 8.125 15.7507 8.28962 15.4576 8.58265C15.1646 8.87567 15 9.2731 15 9.6875C15 10.1019 15.1646 10.4993 15.4576 10.7924C15.7507 11.0854 16.1481 11.25 16.5625 11.25C16.9769 11.25 17.3743 11.0854 17.6674 10.7924C17.9604 10.4993 18.125 10.1019 18.125 9.6875ZM9.0325 19.1756C10.1027 19.7322 11.2939 20.0154 12.5 20C13.706 20.0148 14.897 19.7316 15.9672 19.1756C17.0375 18.6195 17.9538 17.8078 18.635 16.8125C18.7433 16.636 18.7771 16.4236 18.7289 16.2222C18.6806 16.0208 18.5543 15.8468 18.3778 15.7384C18.2013 15.6301 17.9889 15.5964 17.7875 15.6446C17.5861 15.6928 17.4121 15.8191 17.3038 15.9956C16.763 16.7637 16.0426 17.3878 15.2053 17.8134C14.3679 18.239 13.4392 18.4533 12.5 18.4375C11.5608 18.4529 10.6321 18.2384 9.79476 17.8128C8.9574 17.3872 8.23677 16.7634 7.69563 15.9956C7.5873 15.8191 7.41329 15.6928 7.21186 15.6446C7.01043 15.5964 6.7981 15.6301 6.62156 15.7384C6.44503 15.8468 6.31876 16.0208 6.27052 16.2222C6.22229 16.4236 6.25605 16.636 6.36438 16.8125C7.04523 17.8082 7.96183 18.62 9.0325 19.1756Z" fill="#FF990B"/>
</svg>
