<svg width="28" height="27" viewBox="0 0 28 27" fill="none" xmlns="http://www.w3.org/2000/svg">
<path d="M15.6434 0.186035C17.1434 0.190035 17.9047 0.198035 18.5621 0.216702L18.8207 0.226035C19.1194 0.236702 19.4141 0.250035 19.7701 0.266035C21.1887 0.332702 22.1567 0.556702 23.0061 0.886035C23.8861 1.2247 24.6274 1.68337 25.3687 2.42337C26.047 3.08968 26.5716 3.896 26.9061 4.78604C27.2354 5.63537 27.4594 6.60337 27.5261 8.02337C27.5421 8.37804 27.5554 8.6727 27.5661 8.9727L27.5741 9.23137C27.5941 9.88737 27.6021 10.6487 27.6047 12.1487L27.6061 13.1434V14.89C27.6093 15.8626 27.5991 16.8351 27.5754 17.8074L27.5674 18.066C27.5567 18.366 27.5434 18.6607 27.5274 19.0154C27.4607 20.4354 27.2341 21.402 26.9061 22.2527C26.5716 23.1427 26.047 23.9491 25.3687 24.6154C24.7024 25.2936 23.8961 25.8183 23.0061 26.1527C22.1567 26.482 21.1887 26.706 19.7701 26.7727L18.8207 26.8127L18.5621 26.8207C17.9047 26.8394 17.1434 26.8487 15.6434 26.8514L14.6487 26.8527H12.9034C11.9304 26.8561 10.9574 26.8459 9.98474 26.822L9.72607 26.814C9.40955 26.802 9.0931 26.7883 8.77674 26.7727C7.35807 26.706 6.39007 26.482 5.5394 26.1527C4.64984 25.8181 3.84399 25.2935 3.17807 24.6154C2.49933 23.9492 1.97421 23.1429 1.6394 22.2527C1.31007 21.4034 1.08607 20.4354 1.0194 19.0154L0.979403 18.066L0.972736 17.8074C0.948158 16.8351 0.937045 15.8626 0.939403 14.89V12.1487C0.935712 11.1762 0.945491 10.2036 0.968736 9.23137L0.97807 8.9727C0.988736 8.6727 1.00207 8.37804 1.01807 8.02337C1.08474 6.60337 1.30874 5.6367 1.63807 4.78604C1.97366 3.89563 2.4997 3.08928 3.1794 2.42337C3.84494 1.74543 4.65032 1.2208 5.5394 0.886035C6.39007 0.556702 7.35674 0.332702 8.77674 0.266035C9.1314 0.250035 9.4274 0.236702 9.72607 0.226035L9.98474 0.218035C10.957 0.194345 11.9295 0.184122 12.9021 0.187368L15.6434 0.186035ZM14.2727 6.8527C12.5046 6.8527 10.8089 7.55508 9.55869 8.80532C8.30845 10.0556 7.60607 11.7513 7.60607 13.5194C7.60607 15.2875 8.30845 16.9832 9.55869 18.2334C10.8089 19.4837 12.5046 20.186 14.2727 20.186C16.0408 20.186 17.7365 19.4837 18.9868 18.2334C20.237 16.9832 20.9394 15.2875 20.9394 13.5194C20.9394 11.7513 20.237 10.0556 18.9868 8.80532C17.7365 7.55508 16.0408 6.8527 14.2727 6.8527ZM14.2727 9.51937C14.798 9.51928 15.3182 9.62266 15.8035 9.8236C16.2889 10.0245 16.7299 10.3191 17.1014 10.6905C17.4729 11.0618 17.7676 11.5028 17.9687 11.988C18.1698 12.4733 18.2733 12.9934 18.2734 13.5187C18.2735 14.044 18.1701 14.5642 17.9692 15.0495C17.7682 15.5348 17.4737 15.9758 17.1023 16.3473C16.7309 16.7188 16.29 17.0135 15.8048 17.2146C15.3195 17.4157 14.7994 17.5193 14.2741 17.5194C13.2132 17.5194 12.1958 17.0979 11.4456 16.3478C10.6955 15.5977 10.2741 14.5802 10.2741 13.5194C10.2741 12.4585 10.6955 11.4411 11.4456 10.6909C12.1958 9.9408 13.2132 9.51937 14.2741 9.51937M21.2741 4.8527C20.832 4.8527 20.4081 5.0283 20.0956 5.34086C19.783 5.65342 19.6074 6.07734 19.6074 6.51937C19.6074 6.9614 19.783 7.38532 20.0956 7.69788C20.4081 8.01044 20.832 8.18604 21.2741 8.18604C21.7161 8.18604 22.14 8.01044 22.4526 7.69788C22.7651 7.38532 22.9407 6.9614 22.9407 6.51937C22.9407 6.07734 22.7651 5.65342 22.4526 5.34086C22.14 5.0283 21.7161 4.8527 21.2741 4.8527Z" fill="#F8EDD9"/>
</svg>
