<svg width="25" height="25" viewBox="0 0 25 25" fill="none" xmlns="http://www.w3.org/2000/svg">
<path d="M22.2424 0.518555C22.9496 0.518555 23.6279 0.799506 24.128 1.2996C24.6281 1.7997 24.9091 2.47798 24.9091 3.18522V21.8519C24.9091 22.5591 24.6281 23.2374 24.128 23.7375C23.6279 24.2376 22.9496 24.5185 22.2424 24.5185H3.57574C2.86849 24.5185 2.19022 24.2376 1.69012 23.7375C1.19002 23.2374 0.909073 22.5591 0.909073 21.8519V3.18522C0.909073 2.47798 1.19002 1.7997 1.69012 1.2996C2.19022 0.799506 2.86849 0.518555 3.57574 0.518555H22.2424ZM21.5757 21.1852V14.1186C21.5757 12.9657 21.1178 11.8602 20.3026 11.045C19.4875 10.2298 18.3819 9.77188 17.2291 9.77188C16.0957 9.77188 14.7757 10.4652 14.1357 11.5052V10.0252H10.4157V21.1852H14.1357V14.6119C14.1357 13.5852 14.9624 12.7452 15.9891 12.7452C16.4841 12.7452 16.9589 12.9419 17.309 13.292C17.6591 13.642 17.8557 14.1168 17.8557 14.6119V21.1852H21.5757ZM6.0824 7.93189C6.67649 7.93189 7.24624 7.69589 7.66632 7.27581C8.0864 6.85572 8.3224 6.28597 8.3224 5.69189C8.3224 4.45189 7.3224 3.43855 6.0824 3.43855C5.48478 3.43855 4.91164 3.67596 4.48906 4.09854C4.06647 4.52112 3.82907 5.09427 3.82907 5.69189C3.82907 6.93189 4.8424 7.93189 6.0824 7.93189ZM7.93573 21.1852V10.0252H4.2424V21.1852H7.93573Z" fill="#F8EDD9"/>
</svg>
