<svg width="25" height="25" viewBox="0 0 25 25" fill="none" xmlns="http://www.w3.org/2000/svg">
<path d="M25.0025 12.5025C25.0025 5.5975 19.405 0 12.5 0C5.595 0 0 5.5975 0 12.5025C0 19.4063 5.59625 25.0038 12.5013 25.0038C19.4063 25.0038 25.0025 19.4063 25.0025 12.5025ZM7.19125 10.0025C7.18283 9.79222 7.21698 9.5824 7.29165 9.38564C7.36632 9.18888 7.47996 9.00924 7.62577 8.85748C7.77158 8.70572 7.94654 8.58498 8.14015 8.5025C8.33377 8.42003 8.54205 8.37751 8.7525 8.37751C8.96295 8.37751 9.17123 8.42003 9.36485 8.5025C9.55847 8.58498 9.73343 8.70572 9.87923 8.85748C10.025 9.00924 10.1387 9.18888 10.2134 9.38564C10.288 9.5824 10.3222 9.79222 10.3138 10.0025C10.3022 10.4091 10.1326 10.7952 9.84099 11.0787C9.54934 11.3622 9.15862 11.5208 8.75188 11.5208C8.34513 11.5208 7.95441 11.3622 7.66276 11.0787C7.3711 10.7952 7.20275 10.4091 7.19125 10.0025ZM14.69 10.0025C14.6816 9.79222 14.7157 9.5824 14.7904 9.38564C14.8651 9.18888 14.9787 9.00924 15.1245 8.85748C15.2703 8.70572 15.4453 8.58498 15.6389 8.5025C15.8325 8.42003 16.0408 8.37751 16.2513 8.37751C16.4617 8.37751 16.67 8.42003 16.8636 8.5025C17.0572 8.58498 17.2322 8.70572 17.378 8.85748C17.5238 9.00924 17.6374 9.18888 17.7121 9.38564C17.7868 9.5824 17.8209 9.79222 17.8125 10.0025C17.801 10.4091 17.6314 10.7952 17.3397 11.0787C17.0481 11.3622 16.6574 11.5208 16.2506 11.5208C15.8439 11.5208 15.4532 11.3622 15.1615 11.0787C14.8699 10.7952 14.7015 10.4091 14.69 10.0025ZM17.1875 15H17.9375C18.1861 15 18.4246 15.0988 18.6004 15.2746C18.7762 15.4504 18.875 15.6889 18.875 15.9375C18.875 16.1861 18.7762 16.4246 18.6004 16.6004C18.4246 16.7762 18.1861 16.875 17.9375 16.875H17.1875C16.415 16.875 15.5163 17.075 14.69 17.3975C13.8538 17.7225 13.1938 18.1325 12.85 18.475C12.7642 18.5671 12.6607 18.641 12.5457 18.6922C12.4307 18.7435 12.3065 18.771 12.1807 18.7732C12.0548 18.7755 11.9297 18.7523 11.813 18.7052C11.6963 18.658 11.5902 18.5878 11.5012 18.4988C11.4122 18.4098 11.342 18.3037 11.2948 18.187C11.2477 18.0703 11.2245 17.9452 11.2268 17.8193C11.229 17.6935 11.2565 17.5693 11.3078 17.4543C11.359 17.3393 11.4329 17.2358 11.525 17.15C12.1188 16.555 13.04 16.0275 14.0113 15.65C14.9913 15.2675 16.1238 15 17.1875 15Z" fill="#E1031B"/>
</svg>
