<svg width="19" height="16" viewBox="0 0 19 16" fill="none" xmlns="http://www.w3.org/2000/svg">
<path d="M18.491 7.9986C18.4909 8.11088 18.4578 8.22067 18.3958 8.31432C18.3339 8.40798 18.2458 8.48136 18.1425 8.52537L1.63756 15.5987C1.49217 15.6609 1.33243 15.6819 1.17591 15.6592C1.01939 15.6365 0.872163 15.5711 0.750427 15.4702C0.628688 15.3692 0.537166 15.2366 0.485927 15.087C0.434691 14.9374 0.425725 14.7765 0.460021 14.6221L1.93255 7.9986L0.460021 1.37507C0.425444 1.22052 0.434234 1.05943 0.485421 0.909565C0.536608 0.7597 0.628201 0.626888 0.750095 0.525785C0.871988 0.424682 1.01944 0.359219 1.17619 0.336618C1.33293 0.314018 1.49288 0.335159 1.63837 0.397709L18.1417 7.47264C18.245 7.51664 18.3331 7.59003 18.395 7.68368C18.457 7.77733 18.4901 7.88712 18.4901 7.99941L18.491 7.9986ZM2.97798 8.57075L1.69996 14.3239L15.1245 8.57075L2.97798 8.57075ZM15.1245 7.42482L1.69996 1.67168L2.9796 7.42482L15.1245 7.42482Z" fill="#1E1E1E"/>
</svg>
