<svg width="30" height="31" viewBox="0 0 30 31" fill="none" xmlns="http://www.w3.org/2000/svg">
<path fill-rule="evenodd" clip-rule="evenodd" d="M5.66667 0.853027C4.25218 0.853027 2.89563 1.41493 1.89543 2.41512C0.895239 3.41532 0.333336 4.77187 0.333336 6.18636V24.853C0.333336 26.2675 0.895239 27.6241 1.89543 28.6243C2.89563 29.6245 4.25218 30.1864 5.66667 30.1864H24.3333C25.7478 30.1864 27.1044 29.6245 28.1046 28.6243C29.1048 27.6241 29.6667 26.2675 29.6667 24.853V6.18636C29.6667 4.77187 29.1048 3.41532 28.1046 2.41512C27.1044 1.41493 25.7478 0.853027 24.3333 0.853027H5.66667ZM5.22134 5.51969C5.07538 5.57394 4.9441 5.66152 4.83797 5.77545C4.73184 5.88939 4.65378 6.02654 4.61001 6.17597C4.56624 6.32541 4.55797 6.483 4.58586 6.63619C4.61376 6.78938 4.67704 6.93394 4.77067 7.05836L12.256 16.9917L4.36934 25.4517L4.31067 25.5197H7.04L13.48 18.6144L18.4293 25.185C18.5442 25.3371 18.7001 25.4532 18.8787 25.5197H24.7747C24.9204 25.4652 25.0514 25.3774 25.1573 25.2633C25.2631 25.1493 25.3409 25.0121 25.3844 24.8627C25.4279 24.7133 25.4359 24.5558 25.4078 24.4027C25.3798 24.2497 25.3164 24.1053 25.2227 23.981L17.7373 14.0477L25.6893 5.51969H22.956L16.516 12.4264L11.564 5.85569C11.4494 5.70311 11.2934 5.58652 11.1147 5.51969H5.22134ZM19.728 23.5837L7.57467 7.45569H10.2667L22.4187 23.5824L19.728 23.5837Z" fill="#F8EDD9"/>
</svg>
