<svg width="35" height="21" viewBox="0 0 35 21" fill="none" xmlns="http://www.w3.org/2000/svg">
<path d="M34.9429 0.000203192C34.4449 2.15821 33.9192 4.45454 33.3659 6.8892C32.8679 9.32387 32.3976 11.7032 31.9549 14.0272C31.5122 16.2959 31.1526 18.3985 30.8759 20.3352H19.5049L18.9239 19.4222C19.4219 17.4302 20.0582 15.3275 20.8329 13.1142C21.6076 10.9009 22.4376 8.65987 23.3229 6.39121C24.2636 4.12254 25.1766 1.9922 26.0619 0.000203192H34.9429ZM16.0189 0.000203192C15.5209 2.15821 14.9952 4.45454 14.4419 6.8892C13.9439 9.32387 13.4736 11.7032 13.0309 14.0272C12.5882 16.2959 12.2286 18.3985 11.9519 20.3352H0.580906L-9.37413e-05 19.4222C0.497906 17.4302 1.13424 15.3275 1.90891 13.1142C2.68357 10.9009 3.51357 8.65987 4.39891 6.39121C5.33957 4.12254 6.25257 1.9922 7.13791 0.000203192H16.0189Z" fill="#D3D3D3"/>
</svg>
