<svg width="963" height="712" viewBox="0 0 963 712" fill="none" xmlns="http://www.w3.org/2000/svg">
<path d="M875.282 481.405C875.282 698.937 698.937 875.282 481.405 875.282C263.873 875.282 87.5282 698.937 87.5282 481.405C87.5282 263.873 263.873 87.5282 481.405 87.5282C698.937 87.5282 875.282 263.873 875.282 481.405ZM95.4057 481.405C95.4057 694.587 268.224 867.404 481.405 867.404C694.587 867.404 867.404 694.587 867.404 481.405C867.404 268.224 694.587 95.4057 481.405 95.4057C268.224 95.4057 95.4057 268.224 95.4057 481.405Z" fill="#141416"/>
<path d="M919.046 481.405C919.046 723.107 723.107 919.046 481.405 919.046C239.703 919.046 43.7641 723.107 43.7641 481.405C43.7641 239.703 239.703 43.7641 481.405 43.7641C723.107 43.7641 919.046 239.703 919.046 481.405ZM52.5169 481.405C52.5169 718.273 244.537 910.293 481.405 910.293C718.273 910.293 910.293 718.273 910.293 481.405C910.293 244.537 718.273 52.5169 481.405 52.5169C244.537 52.5169 52.5169 244.537 52.5169 481.405Z" fill="#141416"/>
<path d="M962.81 481.405C962.81 747.278 747.278 962.81 481.405 962.81C215.532 962.81 0 747.278 0 481.405C0 215.532 215.532 0 481.405 0C747.278 0 962.81 215.532 962.81 481.405ZM9.62808 481.405C9.62808 741.96 220.85 953.182 481.405 953.182C741.96 953.182 953.182 741.96 953.182 481.405C953.182 220.85 741.96 9.62808 481.405 9.62808C220.85 9.62808 9.62808 220.85 9.62808 481.405Z" fill="#141416"/>
</svg>
