<svg width="76" height="88" viewBox="0 0 76 88" fill="none" xmlns="http://www.w3.org/2000/svg">
<path fill-rule="evenodd" clip-rule="evenodd" d="M34.0715 0H9.71434C7.21373 0 4.81553 0.993364 3.04733 2.76156C1.27913 4.52976 0.285767 6.92796 0.285767 9.42857V78.5714C0.285767 81.072 1.27913 83.4702 3.04733 85.2384C4.81553 87.0066 7.21373 88 9.71434 88H34.0715V0ZM41.9286 88H66.2858C68.7864 88 71.1846 87.0066 72.9528 85.2384C74.721 83.4702 75.7143 81.072 75.7143 78.5714V9.42857C75.7143 6.92796 74.721 4.52976 72.9528 2.76156C71.1846 0.993364 68.7864 0 66.2858 0L41.9286 0V88ZM53.7143 36.6897C55.8829 36.6897 57.6429 38.4497 57.6429 40.6183V47.3817C57.6429 47.8976 57.5413 48.4085 57.3439 48.8851C57.1464 49.3618 56.8571 49.7948 56.4923 50.1596C56.1275 50.5244 55.6944 50.8138 55.2177 51.0112C54.7411 51.2087 54.2302 51.3103 53.7143 51.3103C53.1984 51.3103 52.6876 51.2087 52.2109 51.0112C51.7343 50.8138 51.3012 50.5244 50.9364 50.1596C50.5716 49.7948 50.2822 49.3618 50.0848 48.8851C49.8874 48.4085 49.7858 47.8976 49.7858 47.3817V40.6183C49.7858 38.4434 51.5458 36.6897 53.7143 36.6897ZM26.2143 40.6183C26.2143 39.5764 25.8004 38.5771 25.0637 37.8404C24.3269 37.1036 23.3277 36.6897 22.2858 36.6897C21.2438 36.6897 20.2446 37.1036 19.5078 37.8404C18.7711 38.5771 18.3572 39.5764 18.3572 40.6183V47.3817C18.3572 48.4236 18.7711 49.4229 19.5078 50.1596C20.2446 50.8964 21.2438 51.3103 22.2858 51.3103C23.3277 51.3103 24.3269 50.8964 25.0637 50.1596C25.8004 49.4229 26.2143 48.4236 26.2143 47.3817V40.6183Z" fill="#141416"/>
</svg>
