<svg width="45" height="41" viewBox="0 0 45 41" fill="none" xmlns="http://www.w3.org/2000/svg">
<path d="M23.6348 0C29.0671 0.000100333 34.2769 2.15425 38.1182 5.98828C41.9595 9.82242 44.1172 15.023 44.1172 20.4453C44.1171 25.8674 41.9594 31.0673 38.1182 34.9014C34.3968 38.6158 29.3909 40.7539 24.1426 40.8838L23.6348 40.8896H4.7269C2.11631 40.8896 0 38.7733 0 36.1627V4.72691C0 2.11631 2.11631 0 4.7269 0H23.6348Z" fill="black"/>
<path d="M8.07689 6.46268H22.0784C29.811 6.46268 36.0795 12.7314 36.0795 20.464C36.0795 28.1965 29.8107 34.4653 22.0782 34.4653C14.3456 34.4653 8.07689 28.1968 8.07689 20.4642V6.46268Z" fill="#F5FFFF"/>
<path d="M30.6946 23.3361C30.6946 23.3361 30.3244 24.6505 29.9892 25.4696C29.7767 25.9889 29.7103 26.3022 29.3846 26.7825C28.8746 27.5345 28.3341 28.0382 27.5707 28.4237C26.8073 28.8091 24.9506 29.0801 24.9506 29.0801" stroke="black" stroke-width="2.15401" stroke-linecap="round"/>
</svg>
