<svg width="40" height="40" viewBox="0 0 40 40" fill="none" xmlns="http://www.w3.org/2000/svg">
<g clip-path="url(#clip0_16_578)">
<path d="M18.6808 19.0694L0.174561 36.6164C0.382384 37.2829 0.755848 37.8976 1.26641 38.4135C1.77696 38.9294 2.4111 39.3328 3.12033 39.5929C3.82956 39.853 4.59512 39.9629 5.35848 39.9142C6.12184 39.8655 6.86279 39.6595 7.5247 39.3119L28.3477 28.5792L18.6808 19.0694Z" fill="#EA4335"/>
<path d="M37.3937 16.0868L28.3892 11.4191L18.2534 19.4685L28.4304 28.5541L37.3664 23.9364C38.158 23.5612 38.8211 22.9972 39.2837 22.3053C39.7464 21.6135 39.991 20.8202 39.991 20.0115C39.991 19.2028 39.7464 18.4096 39.2837 17.7177C38.8211 17.0258 38.158 16.4618 37.3664 16.0866L37.3937 16.0868Z" fill="#FBBC04"/>
<path d="M0.17451 3.3197C0.0627155 3.69397 0.00703312 4.08014 0.00895945 4.46783V35.4681C0.0100633 35.8557 0.0656943 36.2415 0.17451 36.6164L19.3151 19.5187L0.17451 3.3197Z" fill="#4285F4"/>
<path d="M18.8187 19.9681L28.3891 11.4192L7.59373 0.636475C6.81131 0.221804 5.92144 0.00219444 5.01473 8.6686e-06C2.76465 -0.00394893 0.786473 1.34757 0.174561 3.30729L18.8187 19.9681Z" fill="#34A853"/>
</g>
<defs>
<clipPath id="clip0_16_578">
<rect width="40" height="40" fill="white"/>
</clipPath>
</defs>
</svg>
