<svg width="161" height="61" viewBox="0 0 161 61" fill="none" xmlns="http://www.w3.org/2000/svg">
<path d="M31.5127 0C38.7559 4.75214e-05 45.7025 2.87225 50.8242 7.98438C55.946 13.0965 58.8232 20.0301 58.8232 27.2598C58.8232 34.4894 55.946 41.423 50.8242 46.5352C45.8624 51.4876 39.1881 54.3385 32.1904 54.5117L31.5127 54.5195H6.30254C2.82174 54.5195 0 51.6978 0 48.217V6.30254C0 2.82174 2.82174 0 6.30254 0H31.5127Z" fill="#F5FFFF"/>
<path d="M10.7692 8.6167H29.4379C39.748 8.6167 48.106 16.975 48.106 27.2851C48.106 37.5952 39.7477 45.9535 29.4376 45.9535C19.1275 45.9535 10.7692 37.5955 10.7692 27.2854V8.6167Z" fill="#141414"/>
<path d="M40.9262 31.1147C40.9262 31.1147 40.4325 32.8673 39.9856 33.9594C39.7023 34.6518 39.6138 35.0696 39.1795 35.71C38.4994 36.7126 37.7788 37.3842 36.7609 37.8982C35.743 38.4121 33.2675 38.7734 33.2675 38.7734" stroke="#F5FFFF" stroke-width="2.87201" stroke-linecap="round"/>
<path d="M91.9801 12.1371H92.5323C112.362 12.1371 101.117 45.6714 88.2652 45.6714C84.7512 45.6714 83.2451 43.2116 82.7431 42.057C81.0865 44.4164 79.0282 45.8722 75.966 45.8722C71.8997 45.8722 69.49 41.1533 71.8997 37.8401C72.3013 37.2878 72.7531 36.8862 73.0543 36.6352C73.2551 36.4846 73.5563 36.585 73.6065 36.836C73.8073 37.8903 74.4097 39.5469 76.3676 39.5469C82.0403 39.5469 87.3616 20.1191 92.6829 18.5126C92.8837 18.4624 93.0846 18.4122 93.2854 18.4122C94.2894 18.4122 94.9922 18.5126 95.3436 18.7134C95.5444 18.8139 95.5946 19.0649 95.444 19.2155C89.7211 25.089 87.4118 32.4685 84.8516 37.9907C85.2532 38.6935 86.3074 40.1493 87.8636 40.1493C98.7573 40.1493 103.577 15.2496 92.6829 15.2496C85.203 15.2496 82.4921 23.4324 82.6929 26.9966C82.6929 27.3982 82.3415 27.6994 81.9901 27.599C80.4841 27.2476 78.3254 25.9424 78.5262 22.2777C78.978 14.7978 85.6548 12.1371 91.9801 12.1371ZM114.403 34.828L114.554 34.8782C115.006 34.9284 115.307 35.4304 115.056 35.832C113.901 37.7899 112.947 39.8983 111.14 41.3541C110.136 42.1574 108.931 42.7096 107.676 42.81C106.471 42.9104 105.518 42.5088 105.116 41.3541C104.062 38.4425 105.417 35.4806 106.823 32.9706C107.074 32.4685 107.375 32.0167 107.676 31.5649C107.726 31.4645 108.178 30.5609 108.279 30.4605H108.178C107.325 30.4605 107.325 30.6111 106.773 30.4605C106.672 30.6613 106.622 30.7617 106.622 30.8119C105.467 32.9204 103.71 35.7818 103.208 36.083C102.505 36.5348 101.853 35.6814 102.204 35.33C102.857 34.828 104.514 32.0167 105.568 30.0087C103.811 30.0087 103.208 25.1894 106.12 25.1894C107.475 25.1894 107.375 26.1432 107.375 27.599C107.375 29.6573 111.993 28.1513 111.993 31.4143C111.993 31.6151 111.943 31.8159 111.793 31.9665C108.981 34.9786 107.526 39.0951 109.132 39.0951C110.939 39.0951 112.395 37.1874 113.851 35.1292C114.002 34.9284 114.202 34.828 114.403 34.828ZM122.061 35.079H122.011C122.462 34.4264 123.466 35.079 123.065 35.7818C121.659 38.1915 119.852 42.3582 115.735 42.7598C112.774 43.061 112.472 39.7477 113.225 36.9364C114.129 33.4224 118.697 26.9966 119.25 26.8962C119.601 26.6954 120.053 26.4444 122.262 28.3521C122.462 28.5027 122.412 28.8039 122.211 28.9043C119.149 30.5107 115.786 38.6433 117.392 38.6433C119.199 38.6433 120.605 37.1372 122.061 35.079ZM121.509 23.5328V23.4826C123.065 21.1733 125.424 23.1813 125.424 23.8842C125.424 24.7376 124.169 27.097 122.764 26.9966C121.559 26.8962 119.952 25.842 121.509 23.5328ZM128.842 30.1091C130.649 28.3521 132.557 26.9966 134.113 26.9464C139.384 26.9464 132.055 42.6594 127.286 42.6594C124.123 42.6594 124.174 40.6513 124.324 39.7979C124.374 39.5971 124.525 39.4465 124.726 39.4465C130.147 39.4465 133.059 30.3601 132.055 30.3601C129.796 30.3601 126.583 34.4766 124.324 37.8903C121.262 43.0108 117.798 48.8341 117.447 50.7919C117.396 51.0931 117.095 51.2437 116.844 51.1433C115.991 50.7919 114.686 49.8381 114.786 48.3321C114.937 45.7216 126.081 29.4565 126.182 27.2476C126.232 26.4946 129.244 27.0468 129.143 29.2055C129.143 29.3561 129.043 29.6573 128.842 30.1091ZM150.202 19.7175L150.302 19.7677C150.403 20.0187 150.353 20.4203 150.102 20.4705C147.491 20.8219 136.095 38.6935 139.007 38.6935C141.718 38.6935 143.324 36.2838 143.927 35.1794C144.077 34.9284 144.379 34.828 144.68 34.9284C144.981 35.0288 145.132 35.3802 145.031 35.6814C144.429 37.3883 141.065 42.7598 136.798 42.7598C128.114 42.7598 144.881 18.111 147.943 18.111C148.495 18.111 149.75 18.7637 150.202 19.7175ZM159.892 34.9284L160.092 34.8782C160.594 34.8782 160.845 35.581 160.745 36.0328C160.092 38.8441 155.173 44.0148 149.701 45.9224C149.098 46.9767 148.446 48.0309 147.793 49.0851C146.086 51.8462 144.229 54.7076 141.719 56.7659C139.811 58.3723 136.247 60.0791 134.289 57.7197C133.185 56.3643 133.185 54.4064 133.636 52.8C134.289 50.4907 135.745 48.3321 137.653 46.8763C138.255 46.4244 138.908 46.0228 139.61 45.7216C141.518 44.9184 143.526 45.0188 145.534 44.7176L146.287 44.567L147.643 42.5088C147.04 42.81 146.388 43.0108 145.634 43.061C142.673 43.3622 142.371 40.0489 143.124 37.2376C144.028 33.7236 148.596 27.2978 149.149 27.1974C149.5 26.9966 149.952 26.7456 152.161 28.6533C152.361 28.8039 152.311 29.1051 152.11 29.2055C149.048 30.8119 145.685 38.9445 147.291 38.9445C149.098 38.9445 150.504 37.4385 151.96 35.3802L152.763 33.9746L153.365 32.9204C155.022 30.0589 157.131 27.1472 157.482 27.097C157.683 27.1472 158.285 26.595 160.494 28.5027C160.695 28.6533 160.645 28.9545 160.444 29.0549C158.837 29.9083 156.127 34.9786 154.671 37.338L153.767 38.8441C152.964 40.1493 152.211 41.4545 151.458 42.7598L151.608 42.6092C153.516 41.6553 155.323 40.4505 156.88 38.9947C157.833 38.0911 158.637 37.087 159.139 35.5308C159.239 35.1794 159.54 34.9284 159.892 34.9284ZM138.556 53.5028C139.811 53.4024 142.07 50.7919 144.53 47.2277C137.602 49.3361 136.046 53.5028 138.556 53.5028Z" fill="#F5FFFF"/>
</svg>
