<svg width="121" height="46" viewBox="0 0 121 46" fill="none" xmlns="http://www.w3.org/2000/svg">
<path d="M23.6348 0.555176C29.0671 0.555276 34.2769 2.70942 38.1182 6.54346C41.9595 10.3776 44.1172 15.5782 44.1172 21.0005C44.1171 26.4226 41.9594 31.6225 38.1182 35.4565C34.3968 39.171 29.3909 41.3091 24.1426 41.439L23.6348 41.4448H4.7269C2.11631 41.4448 0 39.3285 0 36.7179V5.28208C0 2.67149 2.11631 0.555176 4.7269 0.555176H23.6348Z" fill="black"/>
<path d="M8.07689 7.01785H22.0784C29.811 7.01785 36.0795 13.2866 36.0795 21.0191C36.0795 28.7517 29.8107 35.0204 22.0782 35.0204C14.3456 35.0204 8.07689 28.7519 8.07689 21.0194V7.01785Z" fill="#F5FFFF"/>
<path d="M30.6946 23.8913C30.6946 23.8913 30.3244 25.2057 29.9892 26.0248C29.7767 26.5441 29.7103 26.8574 29.3846 27.3377C28.8746 28.0896 28.3341 28.5934 27.5707 28.9788C26.8073 29.3643 24.9506 29.6353 24.9506 29.6353" stroke="black" stroke-width="2.15401" stroke-linecap="round"/>
<path d="M68.9848 9.53301H69.399C84.2711 9.53301 75.8373 34.6837 66.1987 34.6837C63.5631 34.6837 62.4336 32.8389 62.0571 31.9729C60.8146 33.7425 59.2709 34.8344 56.9742 34.8344C53.9245 34.8344 52.1173 31.2952 53.9245 28.8102C54.2257 28.3961 54.5646 28.0949 54.7905 27.9066C54.9411 27.7936 55.167 27.869 55.2046 28.0572C55.3552 28.8479 55.8071 30.0903 57.2754 30.0903C61.53 30.0903 65.521 15.5195 69.512 14.3147C69.6626 14.277 69.8132 14.2394 69.9638 14.2394C70.7168 14.2394 71.2439 14.3147 71.5074 14.4653C71.658 14.5406 71.6957 14.7288 71.5827 14.8418C67.2906 19.2469 65.5586 24.7816 63.6384 28.9232C63.9396 29.4503 64.7303 30.5422 65.8975 30.5422C74.0677 30.5422 77.6822 11.8674 69.512 11.8674C63.902 11.8674 61.8688 18.0044 62.0194 20.6776C62.0194 20.9789 61.7559 21.2048 61.4923 21.1295C60.3628 20.8659 58.7438 19.887 58.8944 17.1385C59.2333 11.5285 64.2408 9.53301 68.9848 9.53301ZM85.8021 26.5512L85.9151 26.5888C86.2539 26.6265 86.4798 27.003 86.2916 27.3042C85.4256 28.7726 84.7102 30.3539 83.3548 31.4458C82.6018 32.0482 81.6982 32.4623 80.7569 32.5377C79.8533 32.613 79.1379 32.3117 78.8367 31.4458C78.046 29.262 79.0626 27.0406 80.1168 25.1581C80.3051 24.7816 80.531 24.4427 80.7569 24.1039C80.7945 24.0286 81.1334 23.3509 81.2087 23.2756H81.1334C80.4933 23.2756 80.4933 23.3885 80.0792 23.2756C80.0039 23.4262 79.9662 23.5015 79.9662 23.5391C79.1003 25.1204 77.7825 27.2665 77.406 27.4924C76.8789 27.8313 76.3894 27.1912 76.653 26.9277C77.1424 26.5512 78.3849 24.4427 79.1756 22.9367C77.8578 22.9367 77.406 19.3222 79.5897 19.3222C80.6063 19.3222 80.531 20.0376 80.531 21.1295C80.531 22.6731 83.9949 21.5436 83.9949 23.9909C83.9949 24.1415 83.9572 24.2921 83.8443 24.4051C81.7358 26.6641 80.6439 29.7515 81.8488 29.7515C83.2042 29.7515 84.2961 28.3208 85.3879 26.7771C85.5009 26.6265 85.6515 26.5512 85.8021 26.5512ZM91.5453 26.7394H91.5077C91.8465 26.25 92.5995 26.7394 92.2983 27.2665C91.2441 29.0738 89.8887 32.1988 86.8013 32.5C84.5799 32.7259 84.354 30.241 84.9188 28.1325C85.5965 25.4969 89.0227 20.6776 89.4369 20.6023C89.7004 20.4517 90.0393 20.2635 91.6959 21.6942C91.8465 21.8072 91.8089 22.0331 91.6583 22.1084C89.3616 23.3132 86.839 29.4126 88.0438 29.4126C89.3992 29.4126 90.4534 28.2831 91.5453 26.7394ZM91.1312 18.0797V18.0421C92.2983 16.3102 94.0679 17.8162 94.0679 18.3433C94.0679 18.9834 93.1267 20.7529 92.0724 20.6776C91.1688 20.6023 89.964 19.8117 91.1312 18.0797ZM96.6314 23.012C97.9868 21.6942 99.4176 20.6776 100.585 20.64C104.538 20.64 99.0411 32.4247 95.4642 32.4247C93.0922 32.4247 93.1299 30.9187 93.2428 30.2786C93.2805 30.128 93.3934 30.015 93.544 30.015C97.6103 30.015 99.7941 23.2003 99.0411 23.2003C97.3468 23.2003 94.9371 26.2876 93.2428 28.8479C90.9461 32.6883 88.3482 37.0557 88.0847 38.5241C88.047 38.75 87.8211 38.863 87.6329 38.7877C86.9928 38.5241 86.0139 37.8088 86.0892 36.6792C86.2021 34.7214 94.5606 22.5225 94.6359 20.8659C94.6736 20.3011 96.9326 20.7153 96.8573 22.3343C96.8573 22.4472 96.782 22.6731 96.6314 23.012ZM112.651 15.2183L112.727 15.2559C112.802 15.4442 112.764 15.7454 112.576 15.783C110.618 16.0466 102.071 29.4503 104.255 29.4503C106.288 29.4503 107.493 27.643 107.945 26.8147C108.058 26.6265 108.284 26.5512 108.51 26.6265C108.736 26.7018 108.849 26.9653 108.773 27.1912C108.321 28.4714 105.799 32.5 102.598 32.5C96.0849 32.5 108.66 14.0135 110.957 14.0135C111.371 14.0135 112.312 14.5029 112.651 15.2183ZM119.918 26.6265L120.069 26.5888C120.446 26.5888 120.634 27.1159 120.559 27.4548C120.069 29.5632 116.379 33.4413 112.275 34.872C111.824 35.6627 111.334 36.4533 110.845 37.244C109.564 39.3148 108.171 41.4609 106.289 43.0046C104.858 44.2094 102.185 45.4895 100.717 43.7199C99.8882 42.7034 99.8882 41.235 100.227 40.0302C100.717 38.2982 101.808 36.6792 103.239 35.5874C103.691 35.2485 104.18 34.9473 104.708 34.7214C106.138 34.119 107.644 34.1943 109.15 33.9684L109.715 33.8554L110.732 32.3117C110.28 32.5377 109.79 32.6883 109.226 32.7259C107.004 32.9518 106.778 30.4669 107.343 28.3584C108.021 25.7229 111.447 20.9036 111.861 20.8282C112.125 20.6776 112.464 20.4894 114.12 21.9201C114.271 22.0331 114.233 22.259 114.083 22.3343C111.786 23.5391 109.263 29.6385 110.468 29.6385C111.824 29.6385 112.878 28.509 113.97 26.9653L114.572 25.9111L115.024 25.1204C116.266 22.9743 117.848 20.7906 118.111 20.7529C118.262 20.7906 118.714 20.3764 120.37 21.8072C120.521 21.9201 120.483 22.146 120.333 22.2213C119.128 22.8614 117.095 26.6641 116.003 28.4337L115.325 29.5632C114.723 30.5422 114.158 31.5211 113.593 32.5L113.706 32.387C115.137 31.6717 116.492 30.7681 117.659 29.6762C118.375 28.9985 118.977 28.2455 119.354 27.0783C119.429 26.8147 119.655 26.6265 119.918 26.6265ZM103.917 40.5573C104.858 40.482 106.552 38.5241 108.397 35.8509C103.201 37.4323 102.034 40.5573 103.917 40.5573Z" fill="black"/>
</svg>
