<svg width="68" height="73" viewBox="0 0 68 73" fill="none" xmlns="http://www.w3.org/2000/svg">
<path fill-rule="evenodd" clip-rule="evenodd" d="M20.25 17.7143V14C20.25 10.3533 21.6987 6.85591 24.2773 4.27728C26.8559 1.69866 30.3533 0.25 34 0.25C37.6467 0.25 41.1441 1.69866 43.7227 4.27728C46.3014 6.85591 47.75 10.3533 47.75 14V17.7143C52.5057 17.85 55.4023 18.3377 57.6207 20.16C60.664 22.6533 61.5073 26.8847 63.205 35.351L65.405 46.351C67.8397 58.5243 69.057 64.611 65.757 68.6407C62.457 72.6703 56.2457 72.6667 43.8267 72.6667H24.1733C11.758 72.6667 5.54667 72.6667 2.24667 68.6407C-1.05333 64.6147 0.164007 58.528 2.59867 46.351L4.79867 35.351C6.49267 26.8847 7.33967 22.6533 10.3793 20.16C12.6013 18.3413 15.498 17.85 20.2537 17.7143M25.75 14C25.75 11.812 26.6192 9.71355 28.1664 8.16637C29.7136 6.6192 31.812 5.75 34 5.75C36.188 5.75 38.2865 6.6192 39.8336 8.16637C41.3808 9.71355 42.25 11.812 42.25 14V17.6667H25.75V14ZM34 55.25C32.2935 55.2505 30.6289 54.7218 29.2354 53.7368C27.8419 52.7518 26.7882 51.3589 26.2193 49.75C26.1033 49.404 25.9196 49.0846 25.6789 48.8103C25.4382 48.536 25.1453 48.3124 24.8173 48.1524C24.4893 47.9925 24.1327 47.8994 23.7684 47.8786C23.4041 47.8579 23.0392 47.9099 22.6952 48.0315C22.3511 48.1532 22.0347 48.3421 21.7644 48.5873C21.4941 48.8324 21.2753 49.1289 21.1208 49.4595C20.9662 49.7901 20.879 50.1481 20.8642 50.5128C20.8495 50.8774 20.9074 51.2413 21.0347 51.5833C21.9827 54.2649 23.7388 56.5866 26.0611 58.2288C28.3833 59.8709 31.1576 60.7527 34.0018 60.7527C36.8461 60.7527 39.6203 59.8709 41.9426 58.2288C44.2649 56.5866 46.021 54.2649 46.969 51.5833C47.2121 50.8953 47.172 50.1389 46.8574 49.4805C46.5428 48.8221 45.9795 48.3156 45.2915 48.0725C44.6035 47.8294 43.8471 47.8695 43.1887 48.1841C42.5303 48.4987 42.0238 49.062 41.7807 49.75C41.2118 51.3589 40.1581 52.7518 38.7646 53.7368C37.3711 54.7218 35.7065 55.2505 34 55.25Z" fill="#141416"/>
</svg>
