<svg width="74" height="78" viewBox="0 0 74 78" fill="none" xmlns="http://www.w3.org/2000/svg">
<g filter="url(#filter0_i_300_9155)">
<path d="M39.7647 3.45215C39.7647 2.7228 39.475 2.02333 38.9592 1.5076C38.4435 0.99188 37.744 0.702148 37.0147 0.702148C36.2853 0.702148 35.5859 0.99188 35.0701 1.5076C34.5544 2.02333 34.2647 2.7228 34.2647 3.45215V8.87882C34.2647 9.60816 34.5544 10.3076 35.0701 10.8234C35.5859 11.3391 36.2853 11.6288 37.0147 11.6288C37.744 11.6288 38.4435 11.3391 38.9592 10.8234C39.475 10.3076 39.7647 9.60816 39.7647 8.87882V3.45215ZM58.505 32.7488C57.7409 29.7776 56.3535 27.0029 54.435 24.6088C52.533 22.198 50.1474 20.2121 47.4317 18.7788C44.7227 17.3568 41.7545 16.4963 38.705 16.2488C35.6469 16.0191 32.5745 16.4312 29.685 17.4588C26.7796 18.472 24.1189 20.0833 21.875 22.1888C19.6552 24.2587 17.8724 26.7522 16.6317 29.5222C15.4191 32.3347 14.8072 35.3695 14.835 38.4321C14.75 41.9696 15.5069 45.4766 17.0433 48.6641C18.5797 51.8516 20.8515 54.6283 23.6717 56.7655L24.955 57.9755C26.055 59.1121 26.055 59.1121 26.0184 61.6421V62.8155C25.9742 63.6267 26.0991 64.4383 26.385 65.1988C26.6417 66.0128 27.0964 66.7571 27.705 67.3622C27.9837 67.6481 28.2892 67.9048 28.6217 68.1321V71.7988C28.5613 72.4638 28.6332 73.1341 28.8331 73.7712C29.033 74.4083 29.357 74.9995 29.7865 75.5108C30.216 76.022 30.7424 76.4433 31.3354 76.7501C31.9284 77.057 32.5763 77.2435 33.2417 77.2988H40.575C41.9218 77.1868 43.1689 76.5444 44.0422 75.513C44.9154 74.4816 45.3433 73.1456 45.2317 71.7988V68.1321C45.5627 67.9074 45.8699 67.6494 46.1484 67.3622C46.724 66.7535 47.164 66.0275 47.4317 65.2355C47.7126 64.461 47.8373 63.6385 47.7984 62.8155V61.4588C47.7984 59.4422 47.7984 59.4422 48.935 58.1588L50.3284 56.8755C55.0293 53.2194 58.0991 47.8572 58.8717 41.9521C59.4115 38.8936 59.2865 35.7547 58.505 32.7488ZM39.915 71.7255H34.1217V69.4155H39.915V71.7255ZM37.0184 33.0055C35.8222 33.0055 34.6751 33.4806 33.8293 34.3264C32.9835 35.1722 32.5084 36.3194 32.5084 37.5155C32.5084 38.4879 32.122 39.4206 31.4344 40.1082C30.7468 40.7958 29.8141 41.1821 28.8417 41.1821C27.8692 41.1821 26.9366 40.7958 26.249 40.1082C25.5613 39.4206 25.175 38.4879 25.175 37.5155C25.1653 35.9575 25.465 34.413 26.0567 32.9717C26.6484 31.5304 27.5204 30.221 28.6221 29.1193C29.7238 28.0176 31.0333 27.1456 32.4746 26.5538C33.9159 25.9621 35.4603 25.6624 37.0184 25.6721C37.9908 25.6721 38.9234 26.0585 39.6111 26.7461C40.2987 27.4337 40.685 28.3664 40.685 29.3388C40.685 30.3113 40.2987 31.2439 39.6111 31.9315C38.9234 32.6192 37.9908 33.0055 37.0184 33.0055ZM70.605 42.1721H63.895C63.1657 42.1721 62.4662 41.8824 61.9505 41.3667C61.4347 40.851 61.145 40.1515 61.145 39.4221C61.145 38.6928 61.4347 37.9933 61.9505 37.4776C62.4662 36.9619 63.1657 36.6721 63.895 36.6721H70.605C71.3344 36.6721 72.0338 36.9619 72.5496 37.4776C73.0653 37.9933 73.355 38.6928 73.355 39.4221C73.355 40.1515 73.0653 40.851 72.5496 41.3667C72.0338 41.8824 71.3344 42.1721 70.605 42.1721ZM57.1117 20.1355C56.7504 20.1372 56.3924 20.0667 56.0586 19.9282C55.7249 19.7897 55.4222 19.5859 55.1684 19.3288C54.6534 18.8132 54.3641 18.1142 54.3641 17.3855C54.3641 16.6567 54.6534 15.9578 55.1684 15.4421L59.935 10.6755C60.4563 10.1897 61.1458 9.92527 61.8583 9.93784C62.5707 9.95041 63.2504 10.239 63.7543 10.7429C64.2581 11.2467 64.5468 11.9265 64.5593 12.6389C64.5719 13.3513 64.3074 14.0408 63.8217 14.5621L59.055 19.3288C58.8024 19.5876 58.4999 19.7925 58.1659 19.9311C57.8319 20.0698 57.4733 20.1393 57.1117 20.1355ZM65.545 65.7488C64.8198 65.7295 64.1274 65.4421 63.6017 64.9422L58.835 60.1755C58.5129 59.8561 58.2747 59.4621 58.1417 59.0284C58.0088 58.5947 57.9852 58.1349 58.073 57.6898C58.1609 57.2448 58.3574 56.8284 58.6452 56.4778C58.933 56.1271 59.303 55.8531 59.7224 55.6801C60.2255 55.468 60.7809 55.4127 61.316 55.5213C61.8511 55.6298 62.341 55.8974 62.7217 56.2888L67.4883 61.0555C67.7478 61.3083 67.954 61.6105 68.0948 61.9442C68.2356 62.278 68.3081 62.6366 68.3081 62.9988C68.3081 63.3611 68.2356 63.7196 68.0948 64.0534C67.954 64.3872 67.7478 64.6894 67.4883 64.9422C66.9731 65.458 66.2741 65.7482 65.545 65.7488ZM16.9617 20.1355C16.2326 20.1348 15.5336 19.8447 15.0184 19.3288L10.2517 14.5621C9.73628 14.0419 9.44866 13.3382 9.4521 12.6059C9.45554 11.8735 9.74975 11.1726 10.27 10.6571C10.7903 10.1417 11.494 9.85413 12.2263 9.85756C12.9586 9.861 13.6596 10.1552 14.175 10.6755L18.905 15.4421C19.2891 15.8267 19.5506 16.3165 19.6566 16.8496C19.7625 17.3828 19.708 17.9353 19.5001 18.4375C19.2921 18.9397 18.94 19.369 18.4882 19.6713C18.0364 19.9735 17.5052 20.135 16.9617 20.1355ZM8.56502 65.7488C8.20249 65.7593 7.84186 65.6928 7.50689 65.5538C7.17193 65.4147 6.87023 65.2063 6.62169 64.9422C6.1067 64.4265 5.81744 63.7276 5.81744 62.9988C5.81744 62.2701 6.1067 61.5711 6.62169 61.0555L11.3884 56.2888C11.9097 55.8031 12.5992 55.5386 13.3116 55.5512C14.024 55.5637 14.7038 55.8524 15.2076 56.3562C15.7115 56.86 16.0001 57.5398 16.0127 58.2522C16.0252 58.9647 15.7608 59.6542 15.275 60.1755L10.545 64.9788C10.0044 65.4739 9.29805 65.7486 8.56502 65.7488ZM10.105 42.1721H3.39502C2.66567 42.1721 1.9662 41.8824 1.45048 41.3667C0.93475 40.851 0.64502 40.1515 0.64502 39.4221C0.64502 38.6928 0.93475 37.9933 1.45048 37.4776C1.9662 36.9619 2.66567 36.6721 3.39502 36.6721H10.105C10.8344 36.6721 11.5338 36.9619 12.0496 37.4776C12.5653 37.9933 12.855 38.6928 12.855 39.4221C12.855 40.1515 12.5653 40.851 12.0496 41.3667C11.5338 41.8824 10.8344 42.1721 10.105 42.1721Z" fill="#141416"/>
</g>
<defs>
<filter id="filter0_i_300_9155" x="0.64502" y="0.702148" width="72.71" height="79.53" filterUnits="userSpaceOnUse" color-interpolation-filters="sRGB">
<feFlood flood-opacity="0" result="BackgroundImageFix"/>
<feBlend mode="normal" in="SourceGraphic" in2="BackgroundImageFix" result="shape"/>
<feColorMatrix in="SourceAlpha" type="matrix" values="0 0 0 0 0 0 0 0 0 0 0 0 0 0 0 0 0 0 127 0" result="hardAlpha"/>
<feOffset dy="8.8"/>
<feGaussianBlur stdDeviation="1.46667"/>
<feComposite in2="hardAlpha" operator="arithmetic" k2="-1" k3="1"/>
<feColorMatrix type="matrix" values="0 0 0 0 0.960784 0 0 0 0 1 0 0 0 0 1 0 0 0 0.1 0"/>
<feBlend mode="normal" in2="shape" result="effect1_innerShadow_300_9155"/>
</filter>
</defs>
</svg>
