<svg width="84" height="84" viewBox="0 0 84 84" fill="none" xmlns="http://www.w3.org/2000/svg">
<g filter="url(#filter0_i_300_9101)">
<path fill-rule="evenodd" clip-rule="evenodd" d="M9.1394 39.2471C4.72107 39.2471 0.902238 35.4411 0.889404 30.4416L0.896738 30.3261C0.902849 30.2002 0.926071 29.965 0.966404 29.6203C1.05074 28.9255 1.22857 27.7741 1.60074 26.0636C2.34507 22.639 3.85757 16.9996 6.92657 8.32429C8.1879 4.75479 11.1286 2.29629 14.6816 1.91495C32.9356 -0.0211305 51.3432 -0.0211305 69.5972 1.91495C73.1502 2.29629 76.0909 4.75662 77.3522 8.32429C80.4212 16.9996 81.9356 22.639 82.6781 26.0636C83.0502 27.7741 83.2281 28.9255 83.3124 29.6203C83.3469 29.8932 83.3725 30.1671 83.3894 30.4416C83.3766 35.4411 79.5577 39.2471 75.1394 39.2471C70.7137 39.2471 66.8894 35.4283 66.8894 30.4178C66.8894 29.6884 66.5997 28.989 66.084 28.4732C65.5682 27.9575 64.8688 27.6678 64.1394 27.6678C63.4101 27.6678 62.7106 27.9575 62.1949 28.4732C61.6791 28.989 61.3894 29.6884 61.3894 30.4178C61.3894 35.4283 57.5651 39.2471 53.1394 39.2471C48.7137 39.2471 44.8894 35.4283 44.8894 30.4178C44.8894 29.6884 44.5997 28.989 44.0839 28.4732C43.5682 27.9575 42.8688 27.6678 42.1394 27.6678C41.4101 27.6678 40.7106 27.9575 40.1949 28.4732C39.6791 28.989 39.3894 29.6884 39.3894 30.4178C39.3894 35.4283 35.5651 39.2471 31.1394 39.2471C26.7137 39.2471 22.8894 35.4283 22.8894 30.4178C22.8894 29.6884 22.5997 28.989 22.0839 28.4732C21.5682 27.9575 20.8688 27.6678 20.1394 27.6678C19.4101 27.6678 18.7106 27.9575 18.1949 28.4732C17.6791 28.989 17.3894 29.6884 17.3894 30.4178C17.3894 35.4283 13.5651 39.2471 9.1394 39.2471ZM4.41674 43.8928V53.0044C4.41674 61.2306 4.74674 67.3906 5.1189 71.7118C5.63957 77.7765 10.4539 82.2223 16.4122 82.5871C21.8591 82.9208 30.2466 83.2544 42.0001 83.2544C53.7517 83.2544 62.1411 82.9208 67.5879 82.5871C73.5462 82.2204 78.3606 77.7765 78.8812 71.7118C79.2534 67.3906 79.5834 61.2306 79.5834 53.0044V43.9954C78.1567 44.502 76.6534 44.7594 75.1394 44.7563C70.5872 44.7563 66.6272 42.4829 64.1394 39.0216C61.6534 42.4811 57.6916 44.7563 53.1394 44.7563C48.5872 44.7563 44.6272 42.4829 42.1394 39.0216C39.6534 42.4811 35.6916 44.7563 31.1394 44.7563C26.5872 44.7563 22.6272 42.4829 20.1394 39.0216C17.6534 42.4811 13.6916 44.7563 9.1394 44.7563C7.52563 44.7596 5.92494 44.4669 4.41674 43.8928ZM42.0001 55.7544C37.7412 55.7544 34.7969 56.0661 32.8334 56.4181C31.5024 56.6564 30.4831 57.7565 30.3749 59.6815C30.2227 62.4003 30.0834 66.6719 30.0834 73.1711C30.0834 74.6378 31.2567 75.8221 32.6849 75.8459C35.5107 75.8948 38.6157 75.9199 42.0001 75.9211C45.3856 75.9199 48.4907 75.8948 51.3152 75.8459C52.0125 75.8287 52.6752 75.5391 53.1615 75.0391C53.6478 74.5391 53.9189 73.8686 53.9167 73.1711C53.9167 66.6719 53.7774 62.4003 53.6252 59.6815C53.5189 57.7565 52.4977 56.6564 51.1686 56.4181C49.2032 56.0661 46.2589 55.7544 42.0001 55.7544Z" fill="#141416"/>
</g>
<defs>
<filter id="filter0_i_300_9101" x="0.889404" y="0.462891" width="82.5" height="85.7253" filterUnits="userSpaceOnUse" color-interpolation-filters="sRGB">
<feFlood flood-opacity="0" result="BackgroundImageFix"/>
<feBlend mode="normal" in="SourceGraphic" in2="BackgroundImageFix" result="shape"/>
<feColorMatrix in="SourceAlpha" type="matrix" values="0 0 0 0 0 0 0 0 0 0 0 0 0 0 0 0 0 0 127 0" result="hardAlpha"/>
<feOffset dy="8.8"/>
<feGaussianBlur stdDeviation="1.46667"/>
<feComposite in2="hardAlpha" operator="arithmetic" k2="-1" k3="1"/>
<feColorMatrix type="matrix" values="0 0 0 0 0.960784 0 0 0 0 1 0 0 0 0 1 0 0 0 0.1 0"/>
<feBlend mode="normal" in2="shape" result="effect1_innerShadow_300_9101"/>
</filter>
</defs>
</svg>
