<svg width="80" height="95" viewBox="0 0 80 95" fill="none" xmlns="http://www.w3.org/2000/svg">
<path d="M60.3074 22.6566C63.9296 21.0661 65.6329 16.7756 63.3012 13.5799C60.2483 9.39566 56.2344 5.95887 51.5567 3.58373C44.734 0.119492 36.9213 -0.871914 29.4496 0.778433C21.978 2.42878 15.3097 6.61877 10.581 12.6345C5.85228 18.6502 3.35573 26.1194 3.51672 33.7695C3.67771 41.4195 6.48627 48.7771 11.4639 54.5886C16.4415 60.4 23.2801 64.3058 30.8146 65.6403C38.3491 66.9749 46.1132 65.6557 52.784 61.9075C57.3577 59.3376 61.2234 55.735 64.0976 51.4261C66.2928 48.1351 64.4105 43.92 60.7246 42.4833C57.0387 41.0467 52.9599 43.0195 50.2526 45.9039C48.9544 47.2871 47.4445 48.4751 45.7665 49.4179C41.9851 51.5426 37.5841 52.2904 33.3132 51.5339C29.0423 50.7774 25.1659 48.5634 22.3443 45.2693C19.5228 41.9751 17.9308 37.8045 17.8395 33.4681C17.7483 29.1317 19.1635 24.8978 21.8439 21.4878C24.5243 18.0778 28.3042 15.7027 32.5395 14.7673C36.7748 13.8318 41.2034 14.3937 45.0708 16.3574C46.7869 17.2288 48.3455 18.3523 49.7007 19.6796C52.527 22.4476 56.6852 24.2471 60.3074 22.6566Z" fill="#F8EDD9"/>
<path d="M39.2275 21.8286C44.5877 21.8286 49.0518 25.6545 50.0439 30.7241C50.2526 30.6758 50.47 30.6479 50.6934 30.6479H73.624C73.7228 30.6479 73.8208 30.6528 73.917 30.6626C74.0136 30.6724 74.1087 30.6874 74.2021 30.7065C74.3887 30.7447 74.5688 30.801 74.7402 30.8735C75.0831 31.0186 75.3921 31.2284 75.6514 31.4878C75.9107 31.7471 76.1206 32.056 76.2656 32.3989C76.3381 32.5704 76.3944 32.7504 76.4326 32.937C76.4708 33.1234 76.4902 33.3165 76.4902 33.5142V41.4526C76.4901 43.0355 75.207 44.3188 73.624 44.3188C72.0412 44.3187 70.758 43.0355 70.7578 41.4526V36.3813H50.6934C50.3549 36.3813 50.0309 36.3191 49.7295 36.2114C48.3089 40.6576 44.145 43.8774 39.2275 43.8774C33.1389 43.8774 28.2031 38.9417 28.2031 32.853C28.2032 26.7644 33.139 21.8287 39.2275 21.8286Z" fill="#F8EDD9"/>
<circle cx="39.2289" cy="32.853" r="6.61472" fill="black"/>
<path d="M7.17979 90.5173C6.22484 90.5173 5.34063 90.3581 4.52716 90.0398C3.72547 89.7097 3.01811 89.2499 2.40505 88.6604C1.80379 88.071 1.33221 87.3872 0.990316 86.6091C0.660211 85.8192 0.495158 84.9644 0.495158 84.0449C0.495158 83.1135 0.666105 82.2588 1.008 81.4806C1.36168 80.6908 1.85095 80.007 2.47579 79.4293C3.10063 78.8398 3.82568 78.3859 4.65095 78.0676C5.488 77.7375 6.37811 77.5724 7.32126 77.5724C8.44126 77.5724 9.45516 77.7729 10.3629 78.1737C11.2707 78.5628 12.0076 79.1051 12.5735 79.8006L10.4514 81.9228C10.0269 81.4158 9.56126 81.0385 9.05432 80.791C8.54737 80.5316 7.95789 80.4019 7.28589 80.4019C6.60211 80.4019 5.98905 80.5552 5.44674 80.8617C4.91621 81.1564 4.49179 81.575 4.17347 82.1173C3.85516 82.6596 3.696 83.2962 3.696 84.0272C3.696 84.7581 3.84337 85.4006 4.13811 85.9548C4.44463 86.5089 4.85726 86.9392 5.376 87.2457C5.90653 87.5522 6.51368 87.7055 7.19747 87.7055C7.88126 87.7055 8.45895 87.5758 8.93053 87.3164C9.41389 87.0571 9.77937 86.6798 10.0269 86.1846C10.2863 85.6895 10.416 85.1 10.416 84.4162L12.5558 85.7956L6.84379 85.6541V83.0722H13.5992V83.5497C13.5992 85.047 13.328 86.3143 12.7857 87.3518C12.2434 88.3893 11.4888 89.1792 10.5221 89.7215C9.56716 90.252 8.45305 90.5173 7.17979 90.5173ZM14.8904 90.3228V81.6752H17.9674V90.3228H14.8904ZM17.9674 85.6188L16.5881 84.4516C16.93 83.4731 17.3839 82.7362 17.9497 82.2411C18.5156 81.7459 19.2525 81.4983 20.1603 81.4983C20.5729 81.4983 20.9266 81.5514 21.2213 81.6575C21.5279 81.7636 21.7872 81.9286 21.9994 82.1526L20.2133 84.54C20.119 84.4339 19.9834 84.3514 19.8066 84.2924C19.6415 84.2217 19.4529 84.1863 19.2407 84.1863C18.8399 84.1863 18.5274 84.3101 18.3034 84.5577C18.0794 84.7935 17.9674 85.1472 17.9674 85.6188ZM25.9758 90.4996C25.1741 90.4996 24.4608 90.3051 23.836 89.916C23.2111 89.527 22.7219 88.9964 22.3682 88.3244C22.0145 87.6406 21.8377 86.8684 21.8377 86.0078C21.8377 85.1354 22.0145 84.3573 22.3682 83.6735C22.7219 82.9897 23.2111 82.4592 23.836 82.0819C24.4608 81.6929 25.1741 81.4983 25.9758 81.4983C26.5181 81.4983 27.0132 81.5985 27.4612 81.799C27.9092 81.9876 28.2747 82.2588 28.5577 82.6124C28.8524 82.9661 29.0292 83.367 29.0882 83.815V88.1653C29.0292 88.6251 28.8524 89.0318 28.5577 89.3855C28.2747 89.7274 27.9092 89.9985 27.4612 90.199C27.0132 90.3994 26.5181 90.4996 25.9758 90.4996ZM26.6301 87.7585C27.137 87.7585 27.5438 87.5935 27.8503 87.2634C28.1686 86.9333 28.3278 86.5089 28.3278 85.9901C28.3278 85.6482 28.257 85.3476 28.1155 85.0882C27.9741 84.8289 27.7737 84.6225 27.5143 84.4693C27.2667 84.316 26.9779 84.2394 26.6478 84.2394C26.3177 84.2394 26.0229 84.316 25.7635 84.4693C25.516 84.6225 25.3155 84.8348 25.1623 85.1059C25.0208 85.3653 24.9501 85.66 24.9501 85.9901C24.9501 86.332 25.0208 86.6385 25.1623 86.9097C25.3038 87.1691 25.5042 87.3754 25.7635 87.5286C26.0229 87.6819 26.3118 87.7585 26.6301 87.7585ZM28.204 90.3228V88.0061L28.6461 85.884L28.204 83.7973V81.6752H31.228V90.3228H28.204ZM36.3129 90.5703C35.7823 90.5703 35.2577 90.4996 34.739 90.3581C34.232 90.2166 33.7546 90.028 33.3066 89.7922C32.8703 89.5446 32.499 89.2617 32.1924 88.9434L33.8724 87.228C34.1554 87.5228 34.4914 87.7526 34.8804 87.9177C35.2813 88.0828 35.7057 88.1653 36.1537 88.1653C36.4131 88.1653 36.6076 88.1299 36.7373 88.0592C36.8788 87.9884 36.9495 87.8882 36.9495 87.7585C36.9495 87.5699 36.8493 87.4284 36.6489 87.3341C36.4602 87.228 36.2068 87.1396 35.8884 87.0689C35.5819 86.9863 35.2577 86.892 34.9158 86.7859C34.5739 86.668 34.2438 86.5148 33.9255 86.3261C33.6072 86.1375 33.3478 85.8722 33.1474 85.5303C32.9588 85.1884 32.8644 84.7522 32.8644 84.2217C32.8644 83.6676 33.0118 83.1842 33.3066 82.7716C33.6131 82.3472 34.0375 82.0171 34.5798 81.7813C35.1221 81.5337 35.7588 81.4099 36.4897 81.4099C37.2324 81.4099 37.9398 81.5396 38.6118 81.799C39.2838 82.0465 39.8261 82.4238 40.2388 82.9308L38.5411 84.6461C38.2581 84.3278 37.9457 84.1097 37.6038 83.9918C37.2619 83.8621 36.9495 83.7973 36.6665 83.7973C36.3954 83.7973 36.2009 83.8385 36.083 83.9211C35.9651 83.9918 35.9061 84.092 35.9061 84.2217C35.9061 84.375 36.0004 84.4988 36.1891 84.5931C36.3895 84.6874 36.643 84.7758 36.9495 84.8583C37.2678 84.9291 37.592 85.0234 37.9221 85.1413C38.264 85.2592 38.5882 85.4242 38.8948 85.6364C39.2131 85.8369 39.4666 86.108 39.6552 86.4499C39.8556 86.7918 39.9558 87.2339 39.9558 87.7762C39.9558 88.6369 39.6257 89.3206 38.9655 89.8276C38.3053 90.3228 37.4211 90.5703 36.3129 90.5703ZM45.6272 90.5173C44.7076 90.5173 43.8765 90.3228 43.1337 89.9337C42.4028 89.5446 41.8251 89.0082 41.4007 88.3244C40.9762 87.6406 40.764 86.8684 40.764 86.0078C40.764 85.1354 40.9762 84.3573 41.4007 83.6735C41.8369 82.9897 42.4205 82.4533 43.1514 82.0642C43.8941 81.6634 44.7312 81.463 45.6626 81.463C46.3346 81.463 46.9476 81.575 47.5017 81.799C48.0558 82.023 48.5628 82.359 49.0226 82.807L47.0773 84.7522C46.9005 84.5754 46.6941 84.4457 46.4584 84.3632C46.2344 84.2689 45.9691 84.2217 45.6626 84.2217C45.3325 84.2217 45.0318 84.2983 44.7607 84.4516C44.5013 84.5931 44.2891 84.7935 44.124 85.0529C43.9708 85.3122 43.8941 85.6246 43.8941 85.9901C43.8941 86.3438 43.9708 86.6562 44.124 86.9274C44.2891 87.1868 44.5013 87.3931 44.7607 87.5463C45.0318 87.6996 45.3325 87.7762 45.6626 87.7762C45.9927 87.7762 46.2756 87.7232 46.5114 87.6171C46.7472 87.511 46.9535 87.3577 47.1304 87.1573L49.0933 89.1025C48.6099 89.5741 48.0853 89.9278 47.5194 90.1636C46.9653 90.3994 46.3346 90.5173 45.6272 90.5173ZM54.2444 90.5173C53.313 90.5173 52.4819 90.3228 51.7509 89.9337C51.0317 89.5329 50.46 88.9905 50.0355 88.3068C49.6111 87.6112 49.3989 86.8331 49.3989 85.9724C49.3989 85.1118 49.6052 84.3455 50.0179 83.6735C50.4423 82.9897 51.02 82.4533 51.7509 82.0642C52.4819 81.6634 53.3071 81.463 54.2267 81.463C55.1463 81.463 55.9656 81.6634 56.6848 82.0642C57.4157 82.4533 57.9934 82.9897 58.4179 83.6735C58.8423 84.3455 59.0545 85.1118 59.0545 85.9724C59.0545 86.8331 58.8423 87.6112 58.4179 88.3068C58.0052 88.9905 57.4334 89.5329 56.7025 89.9337C55.9833 90.3228 55.164 90.5173 54.2444 90.5173ZM54.2267 87.7762C54.5686 87.7762 54.8633 87.7055 55.1109 87.564C55.3703 87.4108 55.5707 87.1985 55.7122 86.9274C55.8536 86.6562 55.9244 86.3438 55.9244 85.9901C55.9244 85.6364 55.8477 85.3299 55.6945 85.0705C55.553 84.7994 55.3585 84.5931 55.1109 84.4516C54.8633 84.2983 54.5686 84.2217 54.2267 84.2217C53.8966 84.2217 53.6019 84.2983 53.3425 84.4516C53.0831 84.6049 52.8827 84.8171 52.7412 85.0882C52.5997 85.3476 52.529 85.6541 52.529 86.0078C52.529 86.3497 52.5997 86.6562 52.7412 86.9274C52.8827 87.1985 53.0831 87.4108 53.3425 87.564C53.6019 87.7055 53.8966 87.7762 54.2267 87.7762ZM65.4214 90.4996C64.8672 90.4996 64.3544 90.3994 63.8828 90.199C63.4112 89.9985 63.0222 89.7274 62.7157 89.3855C62.4091 89.0318 62.2205 88.6251 62.1498 88.1653V83.9564C62.2205 83.4966 62.4091 83.084 62.7157 82.7185C63.034 82.3413 63.423 82.0465 63.8828 81.8343C64.3544 81.6103 64.8672 81.4983 65.4214 81.4983C66.2584 81.4983 66.9952 81.6929 67.6319 82.0819C68.2685 82.4592 68.7637 82.9897 69.1174 83.6735C69.4828 84.3573 69.6656 85.1354 69.6656 86.0078C69.6656 86.8684 69.4828 87.6406 69.1174 88.3244C68.7637 88.9964 68.2685 89.527 67.6319 89.916C66.9952 90.3051 66.2584 90.4996 65.4214 90.4996ZM60.2752 93.9834V81.6752H63.3523V83.8503L62.8395 85.9371L63.2816 88.0415V93.9834H60.2752ZM64.8378 87.7585C65.1797 87.7585 65.4803 87.6819 65.7397 87.5286C65.999 87.3754 66.1995 87.1691 66.3409 86.9097C66.4824 86.6385 66.5531 86.332 66.5531 85.9901C66.5531 85.6482 66.4824 85.3476 66.3409 85.0882C66.1995 84.8289 65.999 84.6225 65.7397 84.4693C65.4803 84.316 65.1856 84.2394 64.8555 84.2394C64.5371 84.2394 64.2483 84.316 63.9889 84.4693C63.7296 84.6108 63.5291 84.8171 63.3877 85.0882C63.2462 85.3476 63.1755 85.6482 63.1755 85.9901C63.1755 86.332 63.2462 86.6385 63.3877 86.9097C63.5291 87.1691 63.7237 87.3754 63.9712 87.5286C64.2306 87.6819 64.5195 87.7585 64.8378 87.7585ZM75.2987 90.5173C74.3319 90.5173 73.4772 90.3286 72.7345 89.9514C71.9917 89.5623 71.4081 89.0259 70.9837 88.3421C70.5593 87.6583 70.3471 86.8743 70.3471 85.9901C70.3471 85.1177 70.5534 84.3455 70.966 83.6735C71.3787 82.9897 71.9387 82.4533 72.646 82.0642C73.3652 81.6634 74.1728 81.463 75.0688 81.463C75.9412 81.463 76.7134 81.6516 77.3854 82.0289C78.0692 82.3943 78.5997 82.9072 78.977 83.5674C79.366 84.2158 79.5606 84.9585 79.5606 85.7956C79.5606 85.9724 79.5488 86.1552 79.5252 86.3438C79.5134 86.5206 79.478 86.727 79.4191 86.9628L71.7972 86.9981V85.0175L78.1989 84.9644L76.8195 85.831C76.8077 85.3476 76.737 84.9526 76.6073 84.6461C76.4776 84.3278 76.289 84.0861 76.0414 83.9211C75.7938 83.756 75.4814 83.6735 75.1041 83.6735C74.7151 83.6735 74.3791 83.7678 74.0961 83.9564C73.8132 84.1451 73.5951 84.4103 73.4418 84.7522C73.2886 85.0941 73.2119 85.5068 73.2119 85.9901C73.2119 86.4853 73.2945 86.9097 73.4595 87.2634C73.6246 87.6053 73.8604 87.8646 74.1669 88.0415C74.4734 88.2183 74.8507 88.3068 75.2987 88.3068C75.7231 88.3068 76.0945 88.236 76.4128 88.0945C76.7429 87.9531 77.0376 87.735 77.297 87.4402L78.9063 89.0495C78.4818 89.5329 77.9631 89.8983 77.35 90.1459C76.7488 90.3935 76.065 90.5173 75.2987 90.5173Z" fill="#F8EDD9"/>
</svg>
